<svg xmlns="http://www.w3.org/2000/svg" viewBox="0 0 1500 500" fill="none">
  <path fill="#1D2D35" d="M0 0h1500v500H0z"/>
  <g opacity=".5" stroke="#B2DC5B" stroke-width="5">
    <path opacity=".05" d="M1719.34-13.513c60.38.342 94.22 69.722 57.31 117.517L306.543 2008.13c-33.057 42.82-99.581 36.02-123.296-12.6L-752.206 77.567c-23.714-48.621 11.889-105.225 65.978-104.916z"/>
    <path opacity=".08" d="M1670.03-28.916c58.47-1.71 93.58 64.316 59.46 111.838L370.569 1976.13c-30.557 42.56-95.193 38.24-119.796-8.04L-719.74 142.824c-24.603-46.271 7.953-102.277 60.331-103.806z"/>
    <path opacity=".11" d="M1620.86-41.564c56.5-3.629 92.68 59.043 61.29 106.156L431.806 1941.5c-28.116 42.21-90.774 40.2-116.132-3.72L-684.606 205.246c-25.358-43.92 4.237-99.186 54.843-102.434z"/>
    <path opacity=".14" d="M1571.97-51.487C1626.43-56.9 1663.5 2.427 1634.76 49L490.151 1904.43c-25.738 41.71-86.339 41.89-112.318.32L-646.965 264.729c-25.979-41.576.748-95.965 49.527-100.81z"/>
    <path opacity=".17" d="M1523.48-58.721c52.37-7.057 90.14 48.939 63.98 94.847L545.51 1865.05c-23.43 41.12-81.9 43.34-108.369 4.09L-606.978 321.174c-26.469-39.242-2.512-92.624 44.393-98.943z"/>
    <path opacity=".2" d="M1475.53-63.307c50.22-8.563 88.5 44.129 64.84 89.251L597.794 1823.54c-21.195 40.42-77.468 44.52-104.296 7.59L-564.812 374.494c-26.829-36.926-5.538-89.177 39.452-96.845z"/>
    <path opacity=".23" d="M1428.22-65.292c48.05-9.929 86.66 39.494 65.41 83.714L646.925 1780.06c-19.039 39.61-73.056 45.45-100.117 10.81L-520.637 424.607c-27.061-34.636-8.327-85.636 34.712-94.527z"/>
    <path opacity=".26" d="M1381.7-64.729c45.84-11.153 84.6 35.044 65.66 78.25L692.832 1734.79c-16.967 38.7-68.68 46.12-95.846 13.75L-474.626 471.439c-27.166-32.375-10.876-82.012 30.185-92.001z"/>
    <path opacity=".3" d="M1336.07-61.675c43.6-12.236 82.34 30.788 65.61 72.875L735.449 1687.89c-14.982 37.7-64.346 46.55-91.494 16.4L-426.954 514.927c-27.148-30.151-13.182-78.32 25.878-89.279z"/>
    <path opacity=".33" d="M1291.45-56.193c41.35-13.178 79.89 26.732 65.28 67.601L774.723 1639.54c-13.088 36.61-60.07 46.74-87.08 18.77L-377.798 555.011c-27.01-27.969-15.244-74.569 21.798-86.372z"/>
    <path opacity=".36" d="M1247.96-48.351c39.09-13.978 77.26 22.887 64.66 62.443L810.606 1589.91c-11.289 35.43-55.864 46.69-82.617 20.85L-327.338 591.646c-26.753-25.835-17.062-70.775 17.954-83.294z"/>
    <path opacity=".39" d="M1205.7-38.223c36.83-14.636 74.47 19.26 63.77 57.415L843.058 1539.19c-9.589 34.18-51.737 46.4-78.119 22.64L-275.755 624.789c-26.382-23.754-18.634-66.948 14.354-80.057z"/>
    <path opacity=".42" d="M1164.78-25.885c34.57-15.155 71.53 15.857 62.6 52.528L872.049 1487.55c-7.991 32.85-47.701 45.88-73.601 24.15L-223.23 654.411c-25.9-21.733-19.961-63.103 11-76.676z"/>
    <path opacity=".45" d="M1125.31-11.42c32.31-15.534 68.43 12.683 61.17 47.796L897.557 1435.18c-6.497 31.45-43.767 45.14-69.078 25.36l-998.426-780.053c-25.311-19.775-21.044-59.249 7.902-73.163z"/>
    <path opacity=".48" d="M1087.37 5.086c30.08-15.776 65.21 9.746 59.5 43.23L919.567 1382.24c-5.112 29.99-39.945 44.19-64.563 26.3l-971.092-705.538c-24.618-17.886-21.883-55.401 5.062-69.531z"/>
    <path opacity=".51" d="M1051.07 23.543c27.87-15.883 61.87 7.049 57.58 38.842L938.074 1328.93c-3.837 28.47-36.247 43.02-60.073 26.95L-61.838 721.95c-23.825-16.07-22.48-51.57 2.487-65.795z"/>
    <path opacity=".54" d="M1016.48 43.854c25.7-15.854 58.43 4.599 55.44 34.644L953.079 1275.41c-2.673 26.92-32.681 41.66-55.619 27.33L-7.378 737.334c-22.938-14.334-22.84-47.768.178-61.969z"/>
    <path opacity=".57" d="M983.704 65.923c23.556-15.695 54.896 2.397 53.076 30.645L964.594 1221.88c-1.624 25.3-29.257 40.1-51.217 27.42L47.109 749.163c-21.96-12.679-22.962-44.008-1.861-58.066z"/>
    <path opacity=".6" d="M952.81 89.648c21.461-15.407 51.28.447 50.51 26.855L972.637 1168.51c-.691 23.65-25.983 38.35-46.88 27.24L101.442 757.457c-20.897-11.111-22.852-40.301-3.627-54.101z"/>
    <path opacity=".63" d="M923.873 114.922c19.417-14.993 47.603-1.246 47.742 23.285l5.62 977.263c.126 21.97-22.869 36.44-42.622 26.8L155.44 762.243c-19.752-9.634-22.512-36.659-5.119-50.089z"/>
    <path opacity=".66" d="M896.965 141.638c17.429-14.457 43.873-2.683 44.792 19.943l36.667 901.359c.824 20.26-19.923 34.35-38.456 26.1L208.927 763.556c-18.532-8.251-21.948-33.093-6.336-46.042z"/>
    <path opacity=".69" d="M872.147 169.685c15.505-13.802 40.107-3.862 41.673 16.837l62.427 824.568c1.403 18.54-17.154 32.1-34.395 25.14L261.727 761.44c-17.242-6.966-21.167-29.615-7.278-41.977z"/>
    <path opacity=".72" d="M849.48 198.948c13.649-13.032 36.317-4.781 38.396 13.975l82.878 747.168c1.863 16.801-14.566 29.715-30.452 23.933L313.665 755.946c-15.886-5.781-20.17-26.234-7.944-37.907z"/>
    <path opacity=".75" d="M829.017 229.311c11.867-12.15 32.514-5.441 34.973 11.364l98.013 669.439c2.204 15.052-12.168 27.184-26.638 22.482L364.572 747.134c-14.47-4.701-18.966-22.963-8.336-33.846z"/>
    <path opacity=".79" d="M810.804 260.656c10.165-11.162 28.716-5.842 31.422 9.01L950.063 861.32c2.424 13.303-9.967 24.526-22.967 20.798L414.28 735.07c-13-3.727-17.561-19.811-8.455-29.808z"/>
    <path opacity=".82" d="M794.885 292.862c8.548-10.071 24.933-5.986 27.752 6.919L935.004 813.87c2.527 11.559-7.966 21.752-19.448 18.889L462.625 719.83c-11.482-2.862-15.961-16.788-8.304-25.808z"/>
    <path opacity=".85" d="M781.296 325.807c7.021-8.883 21.179-5.874 23.98 5.097l111.635 437.018c2.509 9.826-6.174 18.871-16.095 16.762l-391.369-83.188c-9.921-2.109-14.175-13.903-7.885-21.86z"/>
    <path opacity=".88" d="M770.067 359.366c5.59-7.601 17.468-5.507 20.12 3.548l105.682 360.713c2.376 8.111-4.593 15.896-12.917 14.428l-328.361-57.899c-8.324-1.467-12.21-11.167-7.203-17.976z"/>
    <path opacity=".91" d="M761.224 393.417c4.257-6.233 13.812-4.891 16.185 2.275l94.565 285.444c2.126 6.418-3.228 12.837-9.924 11.896l-264.145-37.123c-6.697-.941-10.074-8.587-6.261-14.171z"/>
    <path opacity=".94" d="M754.786 427.833c3.027-4.784 10.224-4.028 12.19 1.281l78.352 211.477c1.762 4.756-2.083 9.707-7.127 9.177l-198.96-20.912c-5.044-.53-7.775-6.172-5.064-10.457z"/>
    <path opacity=".97" d="M750.765 462.486c1.905-3.258 6.718-2.921 8.152.57l57.123 139.076c1.284 3.127-1.162 6.516-4.535 6.28l-133.046-9.304c-3.373-.235-5.324-3.931-3.617-6.849z"/>
    <path d="M749.169 497.251c.895-1.661 3.306-1.577 4.084.142l30.971 68.499c.696 1.541-.468 3.276-2.157 3.217l-66.645-2.327c-1.689-.059-2.729-1.872-1.927-3.36z"/>
  </g>
</svg>
