<svg xmlns="http://www.w3.org/2000/svg" width="512" height="512" viewBox="0 0 512 512" fill="none"><path fill="#1D2D35" d="M0 0h512v512H0z"/><path fill-rule="evenodd" clip-rule="evenodd" d="M366.933 85H230.4c-9.426 0-17.067 7.641-17.067 17.067v11.946c0 7.541-6.112 13.654-13.653 13.654h-54.613c-9.426 0-17.067 7.641-17.067 17.066v264.534c0 9.425 7.641 17.066 17.067 17.066h51.2c9.425 0 17.066-7.641 17.066-17.066v-54.614c0-7.54 6.113-13.653 13.654-13.653h58.026c7.541 0 13.654 6.113 13.654 13.653V392.2c0 18.851 15.282 34.133 34.133 34.133H384v-51.2C384 356.282 368.718 341 349.867 341H312.32c-7.541 0-13.653-6.113-13.653-13.653V269.32c0-7.541 6.112-13.653 13.653-13.653h54.613c9.426 0 17.067-7.641 17.067-17.067V102.067C384 92.641 376.359 85 366.933 85m-68.266 157.013c0 7.541-6.113 13.654-13.654 13.654h-58.026c-7.541 0-13.654-6.113-13.654-13.654v-58.026c0-7.541 6.113-13.654 13.654-13.654h58.026c7.541 0 13.654 6.113 13.654 13.654z" fill="#fff"/></svg>