<svg xmlns="http://www.w3.org/2000/svg" height="60" viewBox="0 0 210 31" fill="#fff">
  <path fill-rule="evenodd" clip-rule="evenodd" d="M54 .5A1.5 1.5 0 0 0 52.5 2v4.5A1.5 1.5 0 0 0 54 8h4.5A1.5 1.5 0 0 0 60 6.5V2A1.5 1.5 0 0 0 58.5.5zM54 11a1.5 1.5 0 0 0-1.5 1.5V29a1.5 1.5 0 0 0 1.5 1.5h4.5A1.5 1.5 0 0 0 60 29V12.5a1.5 1.5 0 0 0-1.5-1.5zM204 .5a1.5 1.5 0 0 0-1.5 1.5v4.5A1.5 1.5 0 0 0 204 8h4.5a1.5 1.5 0 0 0 1.5-1.5V2a1.5 1.5 0 0 0-1.5-1.5zm0 10.5a1.5 1.5 0 0 0-1.5 1.5V29a1.5 1.5 0 0 0 1.5 1.5h4.5A1.5 1.5 0 0 0 210 29V12.5a1.5 1.5 0 0 0-1.5-1.5zm-39-9a1.5 1.5 0 0 1 1.5-1.5H186a1.5 1.5 0 0 1 1.5 1.5v4.8a1.2 1.2 0 0 0 1.2 1.2h4.8a1.5 1.5 0 0 1 1.5 1.5V29a1.5 1.5 0 0 1-1.5 1.5H189a1.5 1.5 0 0 1-1.5-1.5V9.2a1.2 1.2 0 0 0-1.2-1.2h-13.8v21a1.5 1.5 0 0 1-1.5 1.5h-4.5A1.5 1.5 0 0 1 165 29zM136.5.5A1.5 1.5 0 0 0 135 2v1.65a.6.6 0 0 1-.6.6h-1.65a1.5 1.5 0 0 0-1.5 1.5V7.4a.6.6 0 0 1-.6.6H129a1.5 1.5 0 0 0-1.5 1.5v12A1.5 1.5 0 0 0 129 23h1.65a.6.6 0 0 1 .6.6v1.65a1.5 1.5 0 0 0 1.5 1.5h1.65a.6.6 0 0 1 .6.6V29a1.5 1.5 0 0 0 1.5 1.5h12A1.5 1.5 0 0 0 150 29v-1.65a.6.6 0 0 1 .6-.6h1.65a1.5 1.5 0 0 0 1.5-1.5V23.6a.6.6 0 0 1 .6-.6H156a1.5 1.5 0 0 0 1.5-1.5v-12A1.5 1.5 0 0 0 156 8h-1.65a.6.6 0 0 1-.6-.6V5.75a1.5 1.5 0 0 0-1.5-1.5h-1.65a.6.6 0 0 1-.6-.6V2a1.5 1.5 0 0 0-1.5-1.5zm12.3 11.25h-1.35a1.203 1.203 0 0 1-1.2-1.2V9.2a1.2 1.2 0 0 0-1.2-1.2h-5.1a1.203 1.203 0 0 0-1.2 1.2v1.35a1.2 1.2 0 0 1-1.2 1.2h-1.35a1.203 1.203 0 0 0-1.2 1.2v5.1a1.2 1.2 0 0 0 1.2 1.2h1.35a1.203 1.203 0 0 1 1.2 1.2v1.35a1.2 1.2 0 0 0 1.2 1.2h5.1a1.203 1.203 0 0 0 1.2-1.2v-1.35a1.2 1.2 0 0 1 1.2-1.2h1.35a1.203 1.203 0 0 0 1.2-1.2v-5.1a1.2 1.2 0 0 0-1.2-1.2M67.5 2A1.5 1.5 0 0 1 69 .5h4.5A1.5 1.5 0 0 1 75 2v12.3a1.2 1.2 0 0 0 1.2 1.2h5.1a1.2 1.2 0 0 0 1.2-1.2v-4.05A2.25 2.25 0 0 1 84.75 8H90v5.25a2.25 2.25 0 0 1-2.25 2.25H83.7a1.2 1.2 0 0 0-1.2 1.2v5.1a1.2 1.2 0 0 0 1.2 1.2h4.05A2.25 2.25 0 0 1 90 25.25v5.25h-5.25a2.25 2.25 0 0 1-2.25-2.25V24.2a1.2 1.2 0 0 0-1.2-1.2h-5.1a1.2 1.2 0 0 0-1.2 1.2V29a1.5 1.5 0 0 1-1.5 1.5H69a1.5 1.5 0 0 1-1.5-1.5zM0 2A1.5 1.5 0 0 1 1.5.5h15.75a1.5 1.5 0 0 1 1.5 1.5v4.8a1.2 1.2 0 0 0 1.2 1.2h5.1a1.2 1.2 0 0 0 1.2-1.2V2a1.5 1.5 0 0 1 1.5-1.5H36A1.5 1.5 0 0 1 37.5 2v4.8A1.2 1.2 0 0 0 38.7 8h4.8A1.5 1.5 0 0 1 45 9.5V29a1.5 1.5 0 0 1-1.5 1.5H39a1.5 1.5 0 0 1-1.5-1.5V9.2A1.2 1.2 0 0 0 36.3 8h-8.85a1.2 1.2 0 0 0-1.2 1.2v12.3a1.5 1.5 0 0 1-1.5 1.5h-4.5a1.5 1.5 0 0 1-1.5-1.5V9.2a1.2 1.2 0 0 0-1.2-1.2H8.7a1.2 1.2 0 0 0-1.2 1.2V29A1.5 1.5 0 0 1 6 30.5H1.5A1.5 1.5 0 0 1 0 29zM118.5.5h-12A1.5 1.5 0 0 0 105 2v1.05a1.2 1.2 0 0 1-1.2 1.2H99a1.5 1.5 0 0 0-1.5 1.5V29a1.5 1.5 0 0 0 1.5 1.5h4.5A1.5 1.5 0 0 0 105 29v-4.8a1.2 1.2 0 0 1 1.2-1.2h5.1a1.203 1.203 0 0 1 1.2 1.2v3.3a3 3 0 0 0 3 3h4.5V26a3 3 0 0 0-3-3h-3.3a1.203 1.203 0 0 1-1.2-1.2v-5.1a1.2 1.2 0 0 1 1.2-1.2h4.8A1.5 1.5 0 0 0 120 14V2a1.5 1.5 0 0 0-1.5-1.5m-6 13.8a1.2 1.2 0 0 1-1.2 1.2h-5.1a1.203 1.203 0 0 1-1.2-1.2V9.2a1.2 1.2 0 0 1 1.2-1.2h5.1a1.203 1.203 0 0 1 1.2 1.2z"/>
</svg>
